<svg xmlns="http://www.w3.org/2000/svg" width="512" height="512" viewBox="0 0 512 512" role="img" aria-label="File paths icon">
  <defs>
    <linearGradient id="g1" x1="0" y1="0" x2="1" y2="1">
      <stop offset="0%" stop-color="#6aa9ff"/>
      <stop offset="100%" stop-color="#8b6bff"/>
    </linearGradient>
    <linearGradient id="g2" x1="1" y1="0" x2="0" y2="1">
      <stop offset="0%" stop-color="#2dd4bf"/>
      <stop offset="100%" stop-color="#60a5fa"/>
    </linearGradient>
    <filter id="shadow" x="-20%" y="-20%" width="140%" height="140%">
      <feDropShadow dx="0" dy="8" stdDeviation="12" flood-color="#000" flood-opacity="0.18"/>
    </filter>
  </defs>
  <g fill="none" stroke-linecap="round" stroke-linejoin="round" stroke-width="18" filter="url(#shadow)">
    <path d="M120 150 C180 110, 260 110, 320 150" stroke="url(#g1)"/>
    <path d="M320 150 C380 190, 380 270, 320 310" stroke="url(#g1)"/>
    <path d="M320 310 C260 350, 180 350, 120 310" stroke="url(#g1)"/>
    <path d="M120 310 C70 270, 70 190, 120 150" stroke="url(#g1)"/>

    <circle cx="120" cy="150" r="20" fill="url(#g2)" opacity="0.3" stroke="url(#g1)"/>
    <circle cx="320" cy="150" r="20" fill="url(#g2)" opacity="0.3" stroke="url(#g1)"/>
    <circle cx="320" cy="310" r="20" fill="url(#g2)" opacity="0.3" stroke="url(#g1)"/>
    <circle cx="120" cy="310" r="20" fill="url(#g2)" opacity="0.3" stroke="url(#g1)"/>

    <path d="M190 230 H322" stroke="url(#g1)"/>
    <path d="M250 200 L320 230 L250 260" stroke="url(#g1)"/>
  </g>
</svg>
