<svg xmlns="http://www.w3.org/2000/svg" width="512" height="512" viewBox="0 0 512 512" role="img" aria-label="Compression icon">
  <defs>
    <linearGradient id="g1" x1="0" y1="0" x2="1" y2="1">
      <stop offset="0%" stop-color="#6aa9ff"/>
      <stop offset="100%" stop-color="#8b6bff"/>
    </linearGradient>
    <linearGradient id="g2" x1="1" y1="0" x2="0" y2="1">
      <stop offset="0%" stop-color="#2dd4bf"/>
      <stop offset="100%" stop-color="#60a5fa"/>
    </linearGradient>
    <filter id="shadow" x="-20%" y="-20%" width="140%" height="140%">
      <feDropShadow dx="0" dy="8" stdDeviation="12" flood-color="#000" flood-opacity="0.18"/>
    </filter>
  </defs>
  <g fill="none" stroke-linecap="round" stroke-linejoin="round" stroke-width="18" filter="url(#shadow)">
    <rect x="120" y="90" width="272" height="332" rx="24" fill="url(#g2)" opacity="0.16"/>
    <rect x="120" y="90" width="272" height="332" rx="24" stroke="url(#g1)"/>
    <path d="M322 90 L392 160 L322 160 Z" fill="url(#g2)" opacity="0.25" stroke="url(#g1)"/>

    <line x1="256" y1="170" x2="256" y2="370" stroke="url(#g1)"/>
    <rect x="240" y="190" width="32" height="24" rx="6" fill="url(#g2)" opacity="0.4" stroke="url(#g1)"/>
    <rect x="240" y="230" width="32" height="24" rx="6" fill="url(#g2)" opacity="0.4" stroke="url(#g1)"/>
    <rect x="240" y="270" width="32" height="24" rx="6" fill="url(#g2)" opacity="0.4" stroke="url(#g1)"/>
    <rect x="240" y="310" width="32" height="24" rx="6" fill="url(#g2)" opacity="0.4" stroke="url(#g1)"/>

    <path d="M180 388 H332" stroke="url(#g1)"/>
    <path d="M200 388 L220 368 L240 388 L260 368 L280 388" stroke="url(#g1)"/>
  </g>
</svg>
